<?xml version="1.0" encoding="UTF-8"?>
<svg version="1.1" xmlns="http://www.w3.org/2000/svg" width="288" height="288">
<path d="M0 0 C0.70108887 0.1556543 1.40217773 0.31130859 2.12451172 0.47167969 C25.38416451 5.91577502 45.35617367 18.26992203 63 34 C63.70640625 34.62132812 64.4128125 35.24265625 65.140625 35.8828125 C86.9591339 56.32620529 99.67096025 84.79513483 104 114 C104.19722656 115.31484375 104.19722656 115.31484375 104.3984375 116.65625 C108.68124055 151.38168013 98.22371525 185.85802248 77.890625 213.91015625 C55.70502799 242.22598401 25.02498526 261.00396162 -10.66381836 266.61621094 C-17.09530633 267.35607915 -23.5349937 267.39247999 -30 267.375 C-30.72411072 267.37478851 -31.44822144 267.37457703 -32.1942749 267.37435913 C-44.17170561 267.33954581 -55.45336659 266.31264801 -67 263 C-67.66547852 262.81808105 -68.33095703 262.63616211 -69.01660156 262.44873047 C-101.46561181 253.40278068 -131.23180739 230.22277181 -148.11376953 201.07714844 C-164.76884924 170.78558071 -171.56478288 134.91237917 -163 101 C-162.83902832 100.32678711 -162.67805664 99.65357422 -162.51220703 98.95996094 C-154.05032367 64.12073703 -131.03074842 35.0037211 -101 16 C-100.09459473 15.42427246 -100.09459473 15.42427246 -99.17089844 14.83691406 C-70.05184653 -3.20938563 -33.04730135 -7.35039152 0 0 Z " fill="#54AD91" transform="translate(176,12)"/>
<path d="M0 0 C1.52947266 -0.02513672 1.52947266 -0.02513672 3.08984375 -0.05078125 C7.21385128 0.4532039 9.80564339 2.14541886 12.8125 4.9375 C15.13273769 9.3459516 15.0625 14.40460593 15.0625 19.3125 C15.78953125 19.61800781 16.5165625 19.92351563 17.265625 20.23828125 C28.36004678 25.28766552 36.53116352 32.28246407 43.3125 42.375 C45.76403064 45.99049266 47.25936044 47.93173808 51.5625 49 C53.295 49.1546875 53.295 49.1546875 55.0625 49.3125 C54.0625 52.3125 54.0625 52.3125 51.0625 54.3125 C50.69921619 57.08179462 50.50364548 59.6593897 50.4375 62.4375 C50.38550464 63.91936774 50.33082608 65.40114382 50.2734375 66.8828125 C50.23234863 67.97964355 50.23234863 67.97964355 50.19042969 69.09863281 C49.99217644 72.52947331 49.51707744 75.90689523 49.0625 79.3125 C49.0625 79.9725 49.0625 80.6325 49.0625 81.3125 C49.7225 81.6425 50.3825 81.9725 51.0625 82.3125 C49.7425 82.6425 48.4225 82.9725 47.0625 83.3125 C47.04791748 84.24819824 47.03333496 85.18389648 47.01831055 86.14794922 C46.04871475 141.85002842 46.04871475 141.85002842 31.0625 157.3125 C27.34891655 160.6445509 23.6548815 162.57496077 19.0625 164.5 C17.268125 165.26376953 17.268125 165.26376953 15.4375 166.04296875 C2.21299969 171.0174625 -8.65128229 165.98967629 -20.93359375 160.8125 C-25.7371461 158.41384707 -27.13548635 156.26803755 -28.9375 151.3125 C-29.6490625 149.7965625 -29.6490625 149.7965625 -30.375 148.25 C-36.23816058 134.53968006 -37.26336114 119.20149043 -37.0625 104.5 C-37.05347656 103.22318359 -37.04445313 101.94636719 -37.03515625 100.63085938 C-37.01188789 97.52453284 -36.97920155 94.41862428 -36.9375 91.3125 C-35.9475 90.8175 -35.9475 90.8175 -34.9375 90.3125 C-34.7516333 90.90675781 -34.5657666 91.50101562 -34.37426758 92.11328125 C-33.51101993 94.85013542 -32.63065309 97.58119912 -31.75 100.3125 C-31.31204102 101.71435547 -31.31204102 101.71435547 -30.86523438 103.14453125 C-28.99446479 108.89765063 -26.97388376 114.68375666 -22.9375 119.3125 C-18.08131295 120.52654676 -14.48695929 118.86689851 -9.8125 117.3125 C0.49000943 114.00814417 9.16495853 114.39219849 19.2109375 118.33984375 C22.47957186 119.4547615 25.63948864 119.90904333 29.0625 120.3125 C31.01620116 116.86308831 32.94733389 113.40151822 34.875 109.9375 C35.69581055 108.48923828 35.69581055 108.48923828 36.53320312 107.01171875 C39.90504658 100.92196512 42.39418229 95.07675311 44.0625 88.3125 C43.80597656 89.15554687 43.54945313 89.99859375 43.28515625 90.8671875 C40.25534344 99.53836895 40.25534344 99.53836895 37.1484375 101.5546875 C34.7279604 102.12680027 32.55069438 102.27892616 30.0625 102.3125 C29.04800781 102.37566406 28.03351563 102.43882812 26.98828125 102.50390625 C17.58533674 102.86244411 17.58533674 102.86244411 13.0625 99.3125 C11.04296875 96.39453125 11.04296875 96.39453125 9.25 93.125 C8.64542969 92.03832031 8.04085937 90.95164062 7.41796875 89.83203125 C6.97066406 89.00058594 6.52335937 88.16914062 6.0625 87.3125 C4.16673634 87.40769454 4.16673634 87.40769454 2.0625 88.3125 C0.18868179 90.7396387 0.18868179 90.7396387 -1.4375 93.6875 C-5.29398552 100.33117278 -5.29398552 100.33117278 -8.9375 102.3125 C-12.94055575 102.79286669 -16.91590738 102.51332217 -20.9375 102.3125 C-22.15373047 102.28349609 -22.15373047 102.28349609 -23.39453125 102.25390625 C-26.69357295 102.0519241 -28.49028878 101.80597445 -30.75 99.3125 C-32.0646164 95.99136384 -33.13673124 92.6438353 -34.09375 89.203125 C-34.3721875 88.57921875 -34.650625 87.9553125 -34.9375 87.3125 C-35.9275 86.9825 -36.9175 86.6525 -37.9375 86.3125 C-37.9375 85.6525 -37.9375 84.9925 -37.9375 84.3125 C-38.9275 83.9825 -39.9175 83.6525 -40.9375 83.3125 C-40.380625 82.0440625 -40.380625 82.0440625 -39.8125 80.75 C-38.8872027 77.11490348 -39.36056385 75.78167936 -40.43505859 72.33081055 C-42.62410373 63.53740134 -42.27957226 51.41287924 -38.28125 43.2734375 C-36.05777491 40.02871513 -33.47250524 37.1251129 -29.9375 35.3125 C-26.94417261 36.3102758 -25.98983685 37.0647025 -23.9375 39.3125 C-23.99550781 38.6834375 -24.05351563 38.054375 -24.11328125 37.40625 C-24.46675892 30.70027369 -23.362926 26.44197105 -18.9375 21.3125 C-18.195 20.838125 -17.4525 20.36375 -16.6875 19.875 C-14.06692366 17.5351997 -14.50712247 15.05502499 -14.26953125 11.66796875 C-13.72518371 7.80630328 -12.1995365 5.4793511 -9.9375 2.3125 C-6.67853853 0.14947248 -3.86048913 0.01460462 0 0 Z " fill="#231D2B" transform="translate(140.9375,28.6875)"/>
<path d="M0 0 C1.69447077 2.54170616 2.4720369 4.12134523 3.33203125 6.94921875 C3.57373047 7.71556641 3.81542969 8.48191406 4.06445312 9.27148438 C4.55661025 10.86103624 5.04373422 12.45215671 5.52539062 14.04492188 C7.23635523 19.42929604 9.29304161 24.64977321 13 29 C17.85618705 30.21404676 21.45054071 28.55439851 26.125 27 C36.42750943 23.69564417 45.10245853 24.07969849 55.1484375 28.02734375 C58.61830884 29.30944718 58.61830884 29.30944718 65 30 C68.96 22.74 72.92 15.48 77 8 C77.66 8 78.32 8 79 8 C79.33 7.01 79.66 6.02 80 5 C80.33 5 80.66 5 81 5 C82.68211553 25.92186431 82.80834381 47.93833226 68.84375 65.09765625 C64.68018172 69.39354131 60.51139266 71.87722873 55 74.1875 C53.80375 74.69667969 52.6075 75.20585937 51.375 75.73046875 C38.15049969 80.7049625 27.28621771 75.67717629 15.00390625 70.5 C10.2003539 68.10134707 8.80201365 65.95553755 7 61 C6.525625 59.989375 6.05125 58.97875 5.5625 57.9375 C-0.28459525 44.26474696 -1.33446088 28.91514866 -1.1875 14.25 C-1.18685547 12.9815625 -1.18621094 11.713125 -1.18554688 10.40625 C-1.14081031 1.14081031 -1.14081031 1.14081031 0 0 Z " fill="#241D2C" transform="translate(105,119)"/>
<path d="M0 0 C1.88949666 1.83737261 3.24521601 3.6798964 4.6484375 5.91015625 C6.04603733 8.26514956 6.04603733 8.26514956 8.875 10.625 C12.28240514 16.03676111 11.38387378 21.77271431 11 28 C10.16597656 28.00257812 9.33195312 28.00515625 8.47265625 28.0078125 C1.22286306 28.25694629 -3.44231807 29.10944211 -9.1953125 33.625 C-12.2867142 35.98035367 -15.61348882 36.5 -19.44921875 36.5 C-22.92280663 35.81911294 -25.53743366 34.21877992 -28.625 32.5 C-37.19614639 27.76980732 -45.51766455 27.88104236 -55 30 C-52.36 30.33 -49.72 30.66 -47 31 C-47 31.33 -47 31.66 -47 32 C-50.63 32 -54.26 32 -58 32 C-58.50752934 23.37200124 -57.41410928 13.01563387 -52 6 C-46.73330367 2.22648106 -41.73782309 2.79520437 -35.5625 3.0625 C-28.57203871 3.238837 -22.38191602 3.03223822 -15.6875 0.9375 C-4.96840098 -2.33253351 -4.96840098 -2.33253351 0 0 Z " fill="#F9DEB1" transform="translate(164,74)"/>
<path d="M0 0 C0.39222105 1.41199578 0.76311059 2.82992764 1.125 4.25 C1.33382812 5.03890625 1.54265625 5.8278125 1.7578125 6.640625 C2.04314411 9.4203071 1.44977894 10.65887549 0 13 C1.15048828 13.78310547 1.15048828 13.78310547 2.32421875 14.58203125 C5.47290965 17.42734463 6.34814406 19.73683579 7.8125 23.6875 C9.25484984 27.12770966 9.25484984 27.12770966 11 30 C14.51071205 31.27111988 15.50803868 31.31956385 19 31 C20.48693359 31.09474609 20.48693359 31.09474609 22.00390625 31.19140625 C28.30382372 31.60661802 28.30382372 31.60661802 33.875 29.0625 C35.10305485 27.29265625 36.31480568 25.51076374 37.48046875 23.69921875 C38.00253906 22.89097656 38.52460938 22.08273438 39.0625 21.25 C39.52785156 20.47140625 39.99320313 19.6928125 40.47265625 18.890625 C42.23977891 16.70318928 43.25956797 16.35360413 46 16 C46.53109375 16.91523437 47.0621875 17.83046875 47.609375 18.7734375 C48.32237522 19.97427998 49.03594699 21.17478324 49.75 22.375 C50.09804687 22.97828125 50.44609375 23.5815625 50.8046875 24.203125 C53.49472069 28.71501306 53.49472069 28.71501306 58 31 C65.01177293 31.59868973 72.04591363 30.92721152 79 30 C79.18175781 29.32453125 79.36351562 28.6490625 79.55078125 27.953125 C79.80214844 27.06109375 80.05351562 26.1690625 80.3125 25.25 C80.55613281 24.36828125 80.79976563 23.4865625 81.05078125 22.578125 C82.02125331 19.94227495 83.21005644 18.14592674 85 16 C83.19145125 28.65984127 75.75508332 40.35562628 69 51 C64.44039383 50.58549035 60.66825148 49.5488928 56.375 47.9375 C45.87339666 44.36721642 37.21987462 45.61221952 26.88671875 49.08984375 C23.18706487 50.25631108 20.81491008 50.7305147 17 50 C13.27979709 46.17767387 11.65719046 42.11480716 9.9375 37.1875 C9.69451172 36.51396484 9.45152344 35.84042969 9.20117188 35.14648438 C8.71255157 33.79208592 8.22732767 32.43645707 7.74560547 31.07958984 C6.53573362 27.70510118 5.26569292 24.35389845 4 21 C3.34 21.33 2.68 21.66 2 22 C-2.1908015 19.4855191 -5.19027833 17.62484427 -7 13 C-7.44074135 9.60465922 -7.72314796 6.35950626 -7 3 C-4.49453103 0.54240623 -3.56182142 0 0 0 Z " fill="#F7DDB0" transform="translate(101,99)"/>
<path d="M0 0 C6.95640327 3.83226531 6.95640327 3.83226531 14.625 3.5 C17.99308466 2.02823191 20.91618009 0.00491281 23.90625 -2.125 C27.29027104 -3.83645891 29.66786136 -3.80173147 33.4375 -3.6875 C35.17966797 -3.64689453 35.17966797 -3.64689453 36.95703125 -3.60546875 C37.83746094 -3.57066406 38.71789062 -3.53585938 39.625 -3.5 C40.615 -0.53 40.615 -0.53 41.625 2.5 C40.37396484 2.46519531 40.37396484 2.46519531 39.09765625 2.4296875 C27.93948159 1.844664 27.93948159 1.844664 17.91015625 5.86328125 C16.31929513 7.60216354 16.31929513 7.60216354 16.1875 10.875 C16.70170203 15.13553108 17.53444633 16.57210705 20.625 19.5 C26.54245509 23.40014086 31.82330349 22.95188653 38.5 21.875 C41.79959443 20.80619803 41.79959443 20.80619803 43 17.9375 C43.75176643 13.80278463 44.27146659 9.68657989 44.625 5.5 C46.625 7.5 46.625 7.5 46.625 10.5 C47.285 10.5 47.945 10.5 48.625 10.5 C46.975 7.2 45.325 3.9 43.625 0.5 C45.605 0.5 47.585 0.5 49.625 0.5 C50.36493946 8.85309439 49.48350753 16.44033765 44.625 23.5 C41.67025921 25.35123556 39.06195439 25.4536243 35.625 25.5 C34.61050781 25.56316406 33.59601563 25.62632812 32.55078125 25.69140625 C23.14783674 26.04994411 23.14783674 26.04994411 18.625 22.5 C16.60546875 19.58203125 16.60546875 19.58203125 14.8125 16.3125 C14.20792969 15.22582031 13.60335937 14.13914062 12.98046875 13.01953125 C12.53316406 12.18808594 12.08585937 11.35664062 11.625 10.5 C9.72923634 10.59519454 9.72923634 10.59519454 7.625 11.5 C5.75118179 13.9271387 5.75118179 13.9271387 4.125 16.875 C0.26851448 23.51867278 0.26851448 23.51867278 -3.375 25.5 C-7.37805575 25.98036669 -11.35340738 25.70082217 -15.375 25.5 C-16.18582031 25.48066406 -16.99664062 25.46132812 -17.83203125 25.44140625 C-21.07127374 25.24308528 -22.90728963 25.0178222 -25.125 22.5625 C-25.74375 21.0465625 -25.74375 21.0465625 -26.375 19.5 C-26.91640625 18.39205078 -26.91640625 18.39205078 -27.46875 17.26171875 C-30.06879065 11.61365747 -31.446747 6.56637296 -29.375 0.5 C-27.75392619 -1.70039172 -26.72855144 -2.39846728 -24.08984375 -3.15625 C-15.12494307 -4.29137411 -7.98538246 -4.40128097 0 0 Z " fill="#060505" transform="translate(135.375,105.5)"/>
<path d="M0 0 C4.091923 2.0459615 5.334783 3.35700985 8.0625 6.875 C13.08597126 13.19620134 18.49191495 19.10068648 24 25 C20.64636105 32.81927398 11.83938704 40.07915622 5 45 C3.02 45.495 3.02 45.495 1 46 C0.67 30.82 0.34 15.64 0 0 Z " fill="#251D2C" transform="translate(119,206)"/>
<path d="M0 0 C0.66 0 1.32 0 2 0 C1.67 15.18 1.34 30.36 1 46 C-3.01275084 44.99681229 -3.64298377 44.69715834 -6.25 41.875 C-9.40997003 38.56552601 -12.73532585 35.5644715 -16.19921875 32.578125 C-18.2242219 30.80350185 -20.13545857 28.94223065 -22 27 C-20.35084024 22.88703529 -17.38850031 20.02059007 -14.375 16.875 C-9.79548088 12.027435 -5.54154494 7.06251427 -1.5234375 1.73046875 C-1.02070313 1.15941406 -0.51796875 0.58835938 0 0 Z " fill="#241D2C" transform="translate(167,206)"/>
<path d="M0 0 C1.2694043 -0.02416992 1.2694043 -0.02416992 2.56445312 -0.04882812 C7.40721907 -0.05262042 10.60680485 0.206139 14.5625 3.3125 C15.5625 4.3125 15.5625 4.3125 15.9375 7.375 C15.45769863 12.41291435 13.90839808 15.54307052 10.5625 19.3125 C4.10719512 23.40913579 -1.27074354 22.21831662 -8.3125 20.6875 C-11.53341158 18.60338074 -12.61162401 15.9240688 -13.4375 12.3125 C-13.66190983 8.96098794 -13.61962908 5.66502412 -13.4375 2.3125 C-8.96134969 -0.23092544 -5.03792597 -0.01909752 0 0 Z " fill="#F2D8AD" transform="translate(123.4375,107.6875)"/>
<path d="M0 0 C2.19109914 3.29415248 1.5870213 6.92361883 1.140625 10.71484375 C0.52399924 13.66464805 -0.18384615 15.06642717 -1.859375 17.71484375 C-7.02122203 20.04273555 -13.34873184 21.03490266 -18.78125 18.9921875 C-22.7237274 16.91143554 -25.622688 14.56194539 -27.859375 10.71484375 C-28.3988677 6.87095826 -28.48850105 4.72691609 -26.421875 1.40234375 C-19.7425111 -2.99626175 -6.80266641 -4.70184296 0 0 Z " fill="#F3D9AD" transform="translate(178.859375,109.28515625)"/>
<path d="M0 0 C-6.4154093 5.42842326 -13.26441668 5.41549836 -21.33984375 5.3359375 C-26.15050168 4.89440433 -28.99037755 3.61852895 -33 1 C-32 -1 -32 -1 -30.13671875 -1.6328125 C-19.53509329 -3.76328269 -10.20550751 -3.79319748 0 0 Z " fill="#F2D8B0" transform="translate(161,156)"/>
<path d="M0 0 C1.32 0.33 2.64 0.66 4 1 C4 8.59 4 16.18 4 24 C2.35 24.33 0.7 24.66 -1 25 C-3.39426298 22.60573702 -2.57582779 16.85355795 -2.75 13.625 C-2.81832031 12.65304688 -2.88664063 11.68109375 -2.95703125 10.6796875 C-3.00730469 9.74640625 -3.05757812 8.813125 -3.109375 7.8515625 C-3.16061523 6.99385254 -3.21185547 6.13614258 -3.26464844 5.25244141 C-3 3 -3 3 -1.74316406 1.13427734 C-1.16791992 0.75996582 -0.59267578 0.3856543 0 0 Z " fill="#F3C995" transform="translate(144,115)"/>
<path d="M0 0 C4.875 2.875 4.875 2.875 6 4 C6.43686654 8.53669097 6.53148105 12.68528372 4.8125 16.9375 C2.74505645 19.29010818 0.81002203 20.63101491 -2 22 C-2.66 22 -3.32 22 -4 22 C-4.37720034 16.46772842 -4.37720034 16.46772842 -2.4375 14.0625 C-0.28825691 10.9788034 -1.43039677 8.6074871 -2 5 C-1.0625 2.0625 -1.0625 2.0625 0 0 Z " fill="#F5DFB0" transform="translate(191,98)"/>
<path d="M0 0 C0.99 0.33 1.98 0.66 3 1 C6.44419134 16.74487472 6.44419134 16.74487472 6 24 C4.02 24 2.04 24 0 24 C0 16 0 8 0 0 Z " fill="#F2D8AD" transform="translate(179,82)"/>
<path d="M0 0 C1.63001953 0.01353516 1.63001953 0.01353516 3.29296875 0.02734375 C4.12441406 0.03894531 4.95585937 0.05054688 5.8125 0.0625 C6.1425 1.0525 6.4725 2.0425 6.8125 3.0625 C2.65728615 5.34116566 -0.64864842 5.09576427 -5.19921875 4.64453125 C-7.1875 4.0625 -7.1875 4.0625 -9.1875 1.0625 C-5.90230525 -0.03256492 -3.45086585 -0.03710608 0 0 Z " fill="#E6BEC9" transform="translate(145.1875,152.9375)"/>
<path d="M0 0 C0 0.33 0 0.66 0 1 C-1.21236328 1.16435547 -1.21236328 1.16435547 -2.44921875 1.33203125 C-4.05216797 1.56986328 -4.05216797 1.56986328 -5.6875 1.8125 C-6.74324219 1.96332031 -7.79898438 2.11414062 -8.88671875 2.26953125 C-13.14864684 3.26950685 -15.98871701 5.15270885 -19.3125 7.9375 C-21.96073687 12.74355951 -21.30840972 17.62853071 -21 23 C-23 22 -23 22 -24 19 C-24.64071017 13.55396359 -23.66166775 10.20288796 -20.6015625 5.80078125 C-14.95403629 -0.54924212 -8.01060238 -0.53011339 0 0 Z " fill="#36343A" transform="translate(145,47)"/>
<path d="M0 0 C3.11989469 2.98424709 3.94014492 4.281739 4.3125 8.75 C4.22793779 14.59536309 1.17332739 17.77333954 -2.75 21.875 C-3.4925 22.57625 -4.235 23.2775 -5 24 C-5.66 23.67 -6.32 23.34 -7 23 C-6.50628906 22.44570312 -6.01257813 21.89140625 -5.50390625 21.3203125 C-4.86324219 20.59585938 -4.22257813 19.87140625 -3.5625 19.125 C-2.92441406 18.40570313 -2.28632813 17.68640625 -1.62890625 16.9453125 C0.81027207 14.03233696 1.13737586 12.35013253 1.125 8.625 C1.12757813 7.85414063 1.13015625 7.08328125 1.1328125 6.2890625 C1.00389788 4.0671811 0.61383717 2.13381492 0 0 Z " fill="#343138" transform="translate(159,170)"/>
<path d="M0 0 C4.17850046 2.40794942 6.54757127 4.93777601 8.4375 9.375 C8.623125 10.24125 8.80875 11.1075 9 12 C8.29875 11.278125 7.5975 10.55625 6.875 9.8125 C6.4109375 9.36132812 5.946875 8.91015625 5.46875 8.4453125 C4.06540247 7.06435881 2.71839044 5.6268469 1.375 4.1875 C-2.74836776 0.71519031 -7.92262043 1.59344825 -13 2 C-10.66246034 -2.67507931 -4.24346136 -1.14003439 0 0 Z " fill="#343239" transform="translate(169,68)"/>
<path d="M0 0 C0.33 0 0.66 0 1 0 C1 10.23 1 20.46 1 31 C0.67 31 0.34 31 0 31 C-0.33 24.4 -0.66 17.8 -1 11 C-1.66 11.66 -2.32 12.32 -3 13 C-2.68817931 11.58318366 -2.37551263 10.16655349 -2.0625 8.75 C-1.88847656 7.96109375 -1.71445313 7.1721875 -1.53515625 6.359375 C-1.052444 4.23121297 -0.53836822 2.11467158 0 0 Z " fill="#18051C" transform="translate(186,114)"/>
<path d="M0 0 C-2.95825446 1.61608346 -5.7294381 2.47224443 -9 3.25 C-12.81743911 4.35593457 -13.82417402 4.79340447 -16.5 7.9375 C-16.995 8.948125 -17.49 9.95875 -18 11 C-18.4125 11.78375 -18.825 12.5675 -19.25 13.375 C-19.4975 13.91125 -19.745 14.4475 -20 15 C-19.58649697 9.72783638 -18.82965008 6.72614602 -15 3 C-10.04096075 -0.34446833 -5.76219112 -0.34573147 0 0 Z " fill="#37353A" transform="translate(158,56)"/>
<path d="M0 0 C3 1.375 3 1.375 5 3 C5 3.66 5 4.32 5 5 C4.13375 4.67 3.2675 4.34 2.375 4 C-2.14108966 2.66189936 -5.52843429 2.5094781 -10 4 C-10 3.01 -10 2.02 -10 1 C-6.81055627 -0.59472187 -3.47081121 -0.38490832 0 0 Z " fill="#19110B" transform="translate(166,115)"/>
<path d="M0 0 C2 3 2 3 1.64477539 4.88964844 C1.43199951 5.58606445 1.21922363 6.28248047 1 7 C0.8578299 8.58567839 0.75495959 10.17518632 0.68359375 11.765625 C0.64169922 12.65507812 0.59980469 13.54453125 0.55664062 14.4609375 C0.51732422 15.38132813 0.47800781 16.30171875 0.4375 17.25 C0.39431641 18.18585938 0.35113281 19.12171875 0.30664062 20.0859375 C0.2008195 22.39048641 0.09873443 24.69513839 0 27 C-0.33 27 -0.66 27 -1 27 C-1.02886537 22.68751391 -1.04675255 18.37505238 -1.0625 14.0625 C-1.07087891 12.83080078 -1.07925781 11.59910156 -1.08789062 10.33007812 C-1.09111328 9.16025391 -1.09433594 7.99042969 -1.09765625 6.78515625 C-1.10289307 5.70113525 -1.10812988 4.61711426 -1.11352539 3.50024414 C-1 1 -1 1 0 0 Z " fill="#1D0520" transform="translate(105,119)"/>
<path d="M0 0 C0.7734375 0.495 0.7734375 0.495 1.5625 1 C1.5625 1.66 1.5625 2.32 1.5625 3 C0.89863281 2.90460938 0.23476562 2.80921875 -0.44921875 2.7109375 C-7.15395525 1.79684678 -7.15395525 1.79684678 -13.4375 4 C-13.4375 3.01 -13.4375 2.02 -13.4375 1 C-9.20368858 -1.70963931 -4.62909082 -1.89911418 0 0 Z " fill="#100804" transform="translate(132.4375,115)"/>
<path d="M0 0 C0.66 0 1.32 0 2 0 C3.98 4.62 5.96 9.24 8 14 C7.01 14.66 6.02 15.32 5 16 C4.35228492 14.08396843 3.70690052 12.16714887 3.0625 10.25 C2.70285156 9.18265625 2.34320313 8.1153125 1.97265625 7.015625 C1.22017881 4.68264275 0.55022756 2.38625005 0 0 Z " fill="#BCAB90" transform="translate(104,116)"/>
<path d="M0 0 C1.63001953 0.01353516 1.63001953 0.01353516 3.29296875 0.02734375 C4.12441406 0.03894531 4.95585937 0.05054688 5.8125 0.0625 C5.8125 0.3925 5.8125 0.7225 5.8125 1.0625 C3.1725 1.3925 0.5325 1.7225 -2.1875 2.0625 C-1.5275 2.7225 -0.8675 3.3825 -0.1875 4.0625 C-3.5625 4.25 -3.5625 4.25 -7.1875 4.0625 C-7.8475 3.0725 -8.5075 2.0825 -9.1875 1.0625 C-5.90230525 -0.03256492 -3.45086585 -0.03710608 0 0 Z " fill="#CFACB7" transform="translate(145.1875,152.9375)"/>
<path d="M0 0 C0.99 0.33 1.98 0.66 3 1 C3.765625 2.70703125 3.765625 2.70703125 4.25 4.8125 C4.50523437 5.84310547 4.50523437 5.84310547 4.765625 6.89453125 C5.02170666 9.19499821 4.69015367 10.80629727 4 13 C3.67 12.01 3.34 11.02 3 10 C2.34 9.67 1.68 9.34 1 9 C0.5859375 6.93359375 0.5859375 6.93359375 0.375 4.4375 C0.30023438 3.61121094 0.22546875 2.78492187 0.1484375 1.93359375 C0.09945312 1.29550781 0.05046875 0.65742187 0 0 Z " fill="#DAC5A1" transform="translate(179,82)"/>
</svg>
